<?xml version="1.0" encoding="UTF-8" standalone="no" ?>
<!DOCTYPE svg PUBLIC "-//W3C//DTD SVG 1.1//EN" "http://www.w3.org/Graphics/SVG/1.1/DTD/svg11.dtd">
<svg xmlns="http://www.w3.org/2000/svg" xmlns:xlink="http://www.w3.org/1999/xlink" version="1.1" width="1080" height="300" viewBox="0 0 1080 300" xml:space="preserve">
<desc>Created with Fabric.js 5.2.4</desc>
<defs>
</defs>
<rect x="0" y="0" width="100%" height="100%" fill="transparent"></rect>
<g transform="matrix(1 0 0 1 540 150)" id="3a0f7a42-956a-452a-8d4d-0372c15ea036"  >
<rect style="stroke: none; stroke-width: 1; stroke-dasharray: none; stroke-linecap: butt; stroke-dashoffset: 0; stroke-linejoin: miter; stroke-miterlimit: 4; fill: rgb(255,255,255); fill-rule: nonzero; opacity: 1; visibility: hidden;" vector-effect="non-scaling-stroke"  x="-540" y="-150" rx="0" ry="0" width="1080" height="300" />
</g>
<g transform="matrix(Infinity NaN NaN Infinity 0 0)" id="a5e8253e-6e69-42a7-8629-df5077f879b6"  >
</g>
<g transform="matrix(6.68 0 0 7.91 540.22 150.27)"  >
<path style="stroke: rgb(0,0,0); stroke-width: 2; stroke-dasharray: none; stroke-linecap: butt; stroke-dashoffset: 0; stroke-linejoin: miter; stroke-miterlimit: 4; fill: rgb(255,255,255); fill-rule: nonzero; opacity: 1;"  transform=" translate(-79.18, -25.98)" d="M 1.3636 12.032 L 7.5401 12.032 L 10.0267 21.4705 L 12.540099999999999 12.032000000000002 L 18.048099999999998 12.032000000000002 L 18.021361999999996 40.027 L 14.358261999999996 40.027 L 14.358261999999996 19.492 L 10.026661999999996 35.749 L 10.026661999999996 35.775738000000004 L 10.026661999999996 35.749 L 10.026661999999996 35.775738000000004 L 10.026661999999996 35.749 L 5.721861999999996 19.492 L 5.721861999999996 40.027 L 2.0320619999999963 40.027 L 2.0320619999999963 12.834 z M 23.2887320855615 35.8021 L 27.6203320855615 35.8021 L 27.6203320855615 16.2571 L 22.2192320855615 16.2571 L 23.288732085561502 17.085980000000003 L 23.288732085561502 35.802980000000005 z M 31.283032085561498 14.678999999999998 L 31.283032085561498 37.379999999999995 C 31.283032085561498 38.8773 30.1333320855615 40.0271 28.6359320855615 40.0271 L 22.2723320855615 40.0271 C 20.775032085561502 40.0271 19.6252320855615 38.877399999999994 19.6252320855615 37.379999999999995 L 19.6252320855615 14.678999999999995 C 19.6252320855615 13.261899999999995 20.7749320855615 12.031899999999995 22.2723320855615 12.031899999999995 L 28.6359320855615 12.031899999999995 C 30.1332320855615 12.031899999999995 31.2830320855615 13.261799999999996 31.2830320855615 14.678999999999995 z M 31.79144497326203 12.032 L 36.06954497326203 12.032 L 38.556144973262036 32.138999999999996 L 41.016044973262034 12.031999999999996 L 44.70584497326203 12.031999999999996 L 41.28334497326203 40.027 L 35.802044973262035 40.027 L 32.486544973262035 12.861 L 32.45980697326203 12.861 z M 50.21387860962567 39.946524 L 46.52407860962567 39.946524 L 46.52407860962567 12.780523999999996 L 45.85562860962567 11.951643999999996 L 50.21392860962567 11.951643999999996 L 50.21392860962567 39.946644 z M 52.35289732620321 12.861 L 51.68444732620321 12.03212 L 62.19244732620321 12.03212 L 62.19244732620321 16.25672 L 54.946447326203206 16.25672 L 56.042747326203205 17.085600000000003 L 56.042747326203205 23.903800000000004 L 60.37434732620321 23.903800000000004 L 60.37434732620321 28.155100000000004 L 54.94654732620321 28.155100000000004 L 56.04284732620321 28.957240000000006 L 56.04284732620321 35.80214000000001 L 62.19254732620321 35.80214000000001 L 62.19254732620321 40.02674000000001 L 52.35294732620321 40.02674000000001 L 52.35294732620321 35.80214000000001 L 52.35294732620321 28.155040000000007 L 52.35294732620321 23.903740000000006 L 52.35294732620321 12.860740000000007 z M 69.99995614973261 12.861 L 69.3315061497326 12.03212 L 79.8395061497326 12.03212 L 79.8395061497326 16.25672 L 72.5935061497326 16.25672 L 73.6898061497326 17.085600000000003 L 73.6898061497326 23.903800000000004 L 78.0214061497326 23.903800000000004 L 78.0214061497326 28.155100000000004 L 72.5936061497326 28.155100000000004 L 73.6899061497326 28.957240000000006 L 73.6899061497326 35.80214000000001 L 79.83960614973259 35.80214000000001 L 79.83960614973259 40.02674000000001 L 70.00000614973258 40.02674000000001 L 70.00000614973258 35.80214000000001 L 70.00000614973258 28.155040000000007 L 70.00000614973258 23.903740000000006 L 70.00000614973258 12.860740000000007 z M 84.54547860962566 12.032 L 87.70057860962567 20.6684 L 90.82887860962566 12.031999999999998 L 94.75937860962566 12.031999999999998 L 89.65237860962566 26.016 L 94.75937860962566 40.027 L 90.82887860962566 40.027 L 87.70057860962567 31.3906 L 84.54547860962566 40.027 L 80.64177860962566 40.027 L 85.74877860962566 26.016000000000002 L 80.93597860962566 12.861000000000002 L 80.26752860962566 12.032120000000003 L 84.54562860962565 12.032120000000003 z M 100.08019625668449 23.85 L 104.38499625668449 23.85 L 104.38499625668449 16.1762 L 98.98389625668449 16.1762 L 100.08019625668449 17.005080000000003 L 100.08019625668449 23.849980000000002 z M 108.04809625668449 14.626000000000001 L 108.04809625668449 25.428 C 108.04809625668449 26.845100000000002 106.89839625668449 28.0751 105.4009962566845 28.0751 L 98.98389625668449 28.0751 L 100.08019625668449 28.90398 L 100.08019625668449 39.97398 L 96.39039625668448 39.97398 L 96.39039625668448 12.780979999999996 L 95.72194625668448 11.952099999999996 L 105.40104625668448 11.952099999999996 C 106.89834625668448 11.952099999999996 108.04814625668448 13.128599999999997 108.04814625668448 14.625899999999996 z M 112.64704759358288 23.824 L 116.95184759358288 23.824 L 116.95184759358288 16.1502 L 111.55074759358288 16.1502 L 112.64704759358288 16.979080000000003 L 112.64704759358288 23.823980000000002 z M 120.61534759358288 14.599 L 120.61534759358288 25.401 C 120.61534759358288 26.8983 119.46564759358289 28.048099999999998 117.96824759358289 28.048099999999998 L 117.46022759358289 28.048099999999998 L 120.61532759358289 39.9461 L 116.81852759358289 39.9461 L 113.66342759358288 28.0481 L 111.55112759358288 28.0481 L 112.64742759358288 28.876980000000003 L 112.64742759358288 39.94698 L 108.95762759358287 39.94698 L 108.95762759358287 16.149980000000003 L 108.95762759358287 12.754280000000003 L 108.28917759358288 11.925400000000003 L 117.96827759358288 11.952138000000003 C 119.46557759358288 11.952138000000003 120.61537759358288 13.101838000000003 120.61537759358288 14.599238000000003 z M 122.08551764705881 12.861 L 121.41706764705881 12.03212 L 131.92506764705882 12.03212 L 131.92506764705882 16.25672 L 124.67906764705883 16.25672 L 125.77536764705883 17.085600000000003 L 125.77536764705883 23.903800000000004 L 130.10696764705884 23.903800000000004 L 130.10696764705884 28.155100000000004 L 124.67916764705883 28.155100000000004 L 125.77546764705883 28.957240000000006 L 125.77546764705883 35.80214000000001 L 131.92516764705883 35.80214000000001 L 131.92516764705883 40.02674000000001 L 122.08556764705882 40.02674000000001 L 122.08556764705882 35.80214000000001 L 122.08556764705882 28.155040000000007 L 122.08556764705882 23.903740000000006 L 122.08556764705882 12.860740000000007 z M 144.27768449197862 14.678999999999998 L 144.27768449197862 20.4544 L 140.61458449197863 20.4544 L 140.61458449197863 16.2298 L 135.21348449197865 16.2298 L 136.28298449197865 17.058680000000003 L 136.28298449197865 20.454380000000004 L 144.27768449197865 30.267180000000003 L 144.27768449197865 34.491780000000006 L 144.27768449197865 37.37948000000001 C 144.27768449197865 38.796580000000006 143.12798449197865 40.02658000000001 141.63058449197865 40.02658000000001 L 135.26698449197866 40.02658000000001 C 133.76968449197867 40.02658000000001 132.61988449197867 38.79668000000001 132.61988449197867 37.37948000000001 L 132.61988449197867 31.416880000000006 L 136.28298449197865 31.416880000000006 L 136.28298449197865 35.801880000000004 L 140.61458449197866 35.801880000000004 L 140.61458449197866 31.577280000000005 L 132.61988449197867 21.764480000000006 L 132.61988449197867 14.678880000000007 C 132.61988449197867 13.181580000000007 133.76958449197866 12.031780000000007 135.26698449197866 12.031780000000007 L 141.63058449197865 12.031780000000007 C 143.12788449197865 12.031780000000007 144.27768449197865 13.181480000000006 144.27768449197865 14.678880000000007 z M 157.0049572192513 14.678999999999998 L 157.0049572192513 20.4544 L 153.34185721925132 20.4544 L 153.34185721925132 16.2298 L 147.94075721925134 16.2298 L 149.01025721925134 17.058680000000003 L 149.01025721925134 20.454380000000004 L 157.00495721925134 30.267180000000003 L 157.00495721925134 34.491780000000006 L 157.00495721925134 37.37948000000001 C 157.00495721925134 38.796580000000006 155.85525721925134 40.02658000000001 154.35785721925134 40.02658000000001 L 147.99425721925135 40.02658000000001 C 146.49695721925136 40.02658000000001 145.34715721925136 38.79668000000001 145.34715721925136 37.37948000000001 L 145.34715721925136 31.416880000000006 L 149.01025721925134 31.416880000000006 L 149.01025721925134 35.801880000000004 L 153.34185721925135 35.801880000000004 L 153.34185721925135 31.577280000000005 L 145.34715721925136 21.764480000000006 L 145.34715721925136 14.678880000000007 C 145.34715721925136 13.181580000000007 146.49685721925135 12.031780000000007 147.99425721925135 12.031780000000007 L 154.35785721925134 12.031780000000007 C 155.85515721925134 12.031780000000007 157.00495721925134 13.181480000000006 157.00495721925134 14.678880000000007 z" stroke-linecap="round" />
</g>
</svg>